<svg width="24" height="25" viewBox="0 0 24 25" fill="none" xmlns="http://www.w3.org/2000/svg">
<path d="M3 3.72046H5L5.4 5.72046M5.4 5.72046H21L17 13.7205H7M5.4 5.72046L7 13.7205M7 13.7205L4.707 16.0135C4.077 16.6435 4.523 17.7205 5.414 17.7205H17M17 17.7205C16.4696 17.7205 15.9609 17.9312 15.5858 18.3062C15.2107 18.6813 15 19.19 15 19.7205C15 20.2509 15.2107 20.7596 15.5858 21.1347C15.9609 21.5097 16.4696 21.7205 17 21.7205C17.5304 21.7205 18.0391 21.5097 18.4142 21.1347C18.7893 20.7596 19 20.2509 19 19.7205C19 19.19 18.7893 18.6813 18.4142 18.3062C18.0391 17.9312 17.5304 17.7205 17 17.7205ZM9 19.7205C9 20.2509 8.78929 20.7596 8.41421 21.1347C8.03914 21.5097 7.53043 21.7205 7 21.7205C6.46957 21.7205 5.96086 21.5097 5.58579 21.1347C5.21071 20.7596 5 20.2509 5 19.7205C5 19.19 5.21071 18.6813 5.58579 18.3062C5.96086 17.9312 6.46957 17.7205 7 17.7205C7.53043 17.7205 8.03914 17.9312 8.41421 18.3062C8.78929 18.6813 9 19.19 9 19.7205Z" stroke="#1A202C" stroke-width="2" stroke-linecap="round" stroke-linejoin="round"/>
</svg>
